<?xml version="1.0" encoding="UTF-8" standalone="no"?>
<svg
   xmlns:osb="http://www.openswatchbook.org/uri/2009/osb"
   xmlns:dc="http://purl.org/dc/elements/1.1/"
   xmlns:cc="http://creativecommons.org/ns#"
   xmlns:rdf="http://www.w3.org/1999/02/22-rdf-syntax-ns#"
   xmlns:svg="http://www.w3.org/2000/svg"
   xmlns="http://www.w3.org/2000/svg"
   xmlns:xlink="http://www.w3.org/1999/xlink"
   id="svg2"
   version="1.1"
   viewBox="0 0 88.030066 86"
   height="107.5"
   width="110.03758">
  <metadata
     id="metadata126">
    <rdf:RDF>
      <cc:Work
         rdf:about="">
        <dc:format>image/svg+xml</dc:format>
        <dc:type
           rdf:resource="http://purl.org/dc/dcmitype/StillImage" />
        <dc:title></dc:title>
      </cc:Work>
    </rdf:RDF>
  </metadata>
  <defs
     id="defs124">
    <linearGradient
       osb:paint="solid"
       id="linearGradient7614">
      <stop
         id="stop7616"
         offset="0"
         style="stop-color:#ffffff;stop-opacity:1;" />
    </linearGradient>
    <linearGradient
       osb:paint="solid"
       id="linearGradient7572">
      <stop
         id="stop7574"
         offset="0"
         style="stop-color:#ffffff;stop-opacity:1;" />
    </linearGradient>
    <marker
       style="overflow:visible"
       id="TriangleInM"
       refX="0.0"
       refY="0.0"
       orient="auto">
      <path
         transform="scale(-0.4)"
         style="fill-rule:evenodd;stroke:#ffffff;stroke-width:1pt;stroke-opacity:1;fill:#ffffff;fill-opacity:1"
         d="M 5.77,0.0 L -2.88,5.0 L -2.88,-5.0 L 5.77,0.0 z "
         id="path4300" />
    </marker>
    <marker
       style="overflow:visible"
       id="marker6732"
       refX="0.0"
       refY="0.0"
       orient="auto">
      <path
         transform="scale(1.1) translate(1,0)"
         d="M 8.7185878,4.0337352 L -2.2072895,0.016013256 L 8.7185884,-4.0017078 C 6.9730900,-1.6296469 6.9831476,1.6157441 8.7185878,4.0337352 z "
         style="fill-rule:evenodd;stroke-width:0.625;stroke-linejoin:round;stroke:#000000;stroke-opacity:1;fill:#000000;fill-opacity:1"
         id="path6734" />
    </marker>
    <marker
       style="overflow:visible"
       id="TriangleInL"
       refX="0.0"
       refY="0.0"
       orient="auto">
      <path
         transform="scale(-0.8)"
         style="fill-rule:evenodd;stroke:#000000;stroke-width:1pt;stroke-opacity:1;fill:#000000;fill-opacity:1"
         d="M 5.77,0.0 L -2.88,5.0 L -2.88,-5.0 L 5.77,0.0 z "
         id="path4297" />
    </marker>
    <marker
       style="overflow:visible"
       id="Arrow2Lstart"
       refX="0.0"
       refY="0.0"
       orient="auto">
      <path
         transform="scale(1.1) translate(1,0)"
         d="M 8.7185878,4.0337352 L -2.2072895,0.016013256 L 8.7185884,-4.0017078 C 6.9730900,-1.6296469 6.9831476,1.6157441 8.7185878,4.0337352 z "
         style="fill-rule:evenodd;stroke-width:0.625;stroke-linejoin:round;stroke:#000000;stroke-opacity:1;fill:#000000;fill-opacity:1"
         id="path4182" />
    </marker>
    <marker
       style="overflow:visible"
       id="TriangleOutL"
       refX="0.0"
       refY="0.0"
       orient="auto">
      <path
         transform="scale(0.8)"
         style="fill-rule:evenodd;stroke:#000000;stroke-width:1pt;stroke-opacity:1;fill:#000000;fill-opacity:1"
         d="M 5.77,0.0 L -2.88,5.0 L -2.88,-5.0 L 5.77,0.0 z "
         id="path4306" />
    </marker>
    <marker
       style="overflow:visible;"
       id="Arrow2Lend"
       refX="0.0"
       refY="0.0"
       orient="auto">
      <path
         transform="scale(1.1) rotate(180) translate(1,0)"
         d="M 8.7185878,4.0337352 L -2.2072895,0.016013256 L 8.7185884,-4.0017078 C 6.9730900,-1.6296469 6.9831476,1.6157441 8.7185878,4.0337352 z "
         style="fill-rule:evenodd;stroke-width:0.625;stroke-linejoin:round;stroke:#000000;stroke-opacity:1;fill:#000000;fill-opacity:1"
         id="path4185" />
    </marker>
    <linearGradient
       gradientUnits="userSpaceOnUse"
       y2="36.652783"
       x2="52.006409"
       y1="36.652783"
       x1="33.451271"
       id="linearGradient7576"
       xlink:href="#linearGradient7572" />
    <linearGradient
       gradientUnits="userSpaceOnUse"
       y2="36.652783"
       x2="52.006409"
       y1="36.652783"
       x1="33.451271"
       id="linearGradient7618"
       xlink:href="#linearGradient7614" />
  </defs>
  <path
     style="fill:#207245"
     id="path10"
     d="m 46.04,0 5.94,0 c 0,2.67 0,5.33 0,8 10.01,0 20.02,0.02 30.03,-0.03 1.69,0.07 3.55,-0.05 5.02,0.96 1.03,1.48 0.91,3.36 0.98,5.06 -0.05,17.36 -0.03,34.71 -0.02,52.06 -0.05,2.91 0.27,5.88 -0.34,8.75 -0.4,2.08 -2.9,2.13 -4.57,2.2 -10.36,0.03 -20.73,-0.02 -31.1,0 0,3 0,6 0,9 l -6.21,0 C 30.53,83.23 15.26,80.67 0,78 0,54.67 0,31.34 0,8.01 15.35,5.34 30.7,2.71 46.04,0 z" />
  <path
     style="fill:#ffffff"
     id="path48"
     d="m 51.98,11 c 11,0 22,0 33,0 0,21 0,42 0,63 -11,0 -22,0 -33,0 0,-2 0,-4 0,-6 2.67,0 5.33,0 8,0 0,-2.33 0,-4.67 0,-7 -2.67,0 -5.33,0 -8,0 0,-1.33 0,-2.67 0,-4 2.67,0 5.33,0 8,0 0,-2.33 0,-4.67 0,-7 -2.67,0 -5.33,0 -8,0 0,-1.33 0,-2.67 0,-4 2.67,0 5.33,0 8,0 0,-2.33 0,-4.67 0,-7 -2.67,0 -5.33,0 -8,0 0,-1.33 0,-2.67 0,-4 2.67,0 5.33,0 8,0 0,-2.33 0,-4.67 0,-7 -2.67,0 -5.33,0 -8,0 0,-1.33 0,-2.67 0,-4 2.67,0 5.33,0 8,0 0,-2.33 0,-4.67 0,-7 -2.67,0 -5.33,0 -8,0 0,-2 0,-4 0,-6 z" />
  <path
     style="fill:#207245"
     id="path58"
     d="m 63.98,17 c 4.67,0 9.33,0 14,0 0,2.33 0,4.67 0,7 -4.67,0 -9.33,0 -14,0 0,-2.33 0,-4.67 0,-7 z" />
  <path
     style="fill:#ffffff"
     id="path72"
     d="m 29.62,26.37 c 2.26,-0.16 4.53,-0.3 6.8,-0.41 -2.67,5.47 -5.35,10.94 -8.07,16.39 2.75,5.6 5.56,11.16 8.32,16.76 -2.41,-0.14 -4.81,-0.29 -7.22,-0.46 -1.7,-4.17 -3.77,-8.2 -4.99,-12.56 -1.36,4.06 -3.3,7.89 -4.86,11.87 -2.19,-0.03 -4.38,-0.12 -6.57,-0.21 2.57,-5.03 5.05,-10.1 7.7,-15.1 -2.25,-5.15 -4.72,-10.2 -7.04,-15.32 2.2,-0.13 4.4,-0.26 6.6,-0.38 1.49,3.91 3.12,7.77 4.35,11.78 1.32,-4.25 3.29,-8.25 4.98,-12.36 z" />
  <path
     style="fill:#207245"
     id="path90"
     d="m 63.98,28 c 4.67,0 9.33,0 14,0 0,2.33 0,4.67 0,7 -4.67,0 -9.33,0 -14,0 0,-2.33 0,-4.67 0,-7 z" />
  <path
     style="fill:#207245"
     id="path108"
     d="m 63.98,39 c 4.67,0 9.33,0 14,0 0,2.33 0,4.67 0,7 -4.67,0 -9.33,0 -14,0 0,-2.33 0,-4.67 0,-7 z" />
  <path
     style="fill:#207245"
     id="path114"
     d="m 63.98,50 c 4.67,0 9.33,0 14,0 0,2.33 0,4.67 0,7 -4.67,0 -9.33,0 -14,0 0,-2.33 0,-4.67 0,-7 z" />
  <path
     style="fill:#207245"
     id="path120"
     d="m 63.98,61 c 4.67,0 9.33,0 14,0 0,2.33 0,4.67 0,7 -4.67,0 -9.33,0 -14,0 0,-2.33 0,-4.67 0,-7 z" />
  <flowRoot
     style="fill:black;stroke:none;stroke-opacity:1;stroke-width:1px;stroke-linejoin:miter;stroke-linecap:butt;fill-opacity:1;font-family:sans-serif;font-style:normal;font-weight:normal;font-size:40px;line-height:125%;letter-spacing:0px;word-spacing:0px"
     id="flowRoot3348"
     xml:space="preserve"><flowRegion
       id="flowRegion3350"><rect
         y="32.770378"
         x="-23.840126"
         height="47.680252"
         width="91.692787"
         id="rect3352" /></flowRegion><flowPara
       id="flowPara3354"></flowPara></flowRoot>  <path
     id="path3358"
     d="m 42.72884,13.152079 c 0,55.799657 0,55.799657 0,55.799657 l 0,0 0,0"
     style="fill:url(#linearGradient7576);fill-opacity:1;fill-rule:evenodd;stroke:url(#linearGradient7618);stroke-width:3.81279983;stroke-linecap:butt;stroke-linejoin:miter;stroke-miterlimit:0;stroke-dasharray:none;stroke-opacity:1;marker-start:url(#TriangleInM);stroke-dashoffset:0" />
  <rect
     y="51.890282"
     x="42.545452"
     height="17.971785"
     width="36.67712"
     id="rect6324"
     style="fill:none;fill-opacity:1;stroke-width:2.03699994;stroke-linecap:butt;stroke-linejoin:miter;stroke-miterlimit:0;stroke-dasharray:none" />
  <rect
     y="53.357368"
     x="70.420059"
     height="3.3009403"
     width="0.36677116"
     id="rect6326"
     style="fill:none;fill-opacity:1;stroke-width:2.03699994;stroke-linecap:butt;stroke-linejoin:miter;stroke-miterlimit:0;stroke-dasharray:none" />
  <rect
     y="47.855797"
     x="52.081505"
     height="11.003135"
     width="28.241379"
     id="rect6328"
     style="fill:none;fill-opacity:1;stroke-width:2.03699994;stroke-linecap:butt;stroke-linejoin:miter;stroke-miterlimit:0;stroke-dasharray:none" />
  <rect
     y="42.354233"
     x="44.012539"
     height="16.871473"
     width="35.576805"
     id="rect6330"
     style="fill:none;fill-opacity:1;stroke-width:2.03699994;stroke-linecap:butt;stroke-linejoin:miter;stroke-miterlimit:0;stroke-dasharray:none" />
</svg>
